<svg xmlns="http://www.w3.org/2000/svg" xmlns:xlink="http://www.w3.org/1999/xlink" viewBox="0 0 81 81" fill="#fff" fill-rule="evenodd" stroke="#000" stroke-linecap="round" stroke-linejoin="round"><use xlink:href="#A" x=".5" y=".5"/><symbol id="A" overflow="visible"><path d="M40 0C17.895 0 0 17.895 0 40s17.895 40 40 40 40-17.895 40-40S62.105 0 40 0zm10.526 74.737V68c0-2.737-1.474-5.052-3.579-6.526h.421c3.79-.421 7.158-1.685 7.158-1.685s4.842-1.474 7.579-4.631c2.737-3.368 3.579-8.211 3.579-8.211s.842-5.263 0-9.474c-.842-4-4-6.948-4-6.948s1.053-2.737.842-5.474c0-2.737-1.263-5.474-1.263-5.474s-2.316-.211-4.842.842C53.474 21.684 50.105 24 50.105 24s-2.316-.842-5.053-1.053c-2.526-.421-5.474-.421-5.474-.421s-2.947 0-5.474.421C31.369 23.368 29.053 24 29.053 24s-3.369-2.316-6.316-3.579c-2.526-1.053-4.842-.842-4.842-.842s-1.263 2.737-1.263 5.474.842 5.474.842 5.474-2.947 2.737-4 6.948 0 9.474 0 9.474.632 4.842 3.579 8.211c2.737 3.158 7.579 4.631 7.579 4.631s3.368 1.263 7.158 1.685h.632c-1.474 1.474-2.947 3.789-2.947 6.526v6.737C14.526 70.316 3.79 56.421 3.79 40 3.79 20 20 3.79 40 3.79S76.421 20 76.421 40c0 16.421-10.947 30.316-25.895 34.737z" fill="#0078d7" stroke="none"/></symbol></svg>